# xmcd
# 
# Track frame offsets:
#     150
#     19462
#     38667
#     57032
#     71780
#     88854
#     102140
#     115975
#     133217
#     152190
#     166167
#     180497
# 
# Disc length: 2679
# 
# Revision: 4
# Processed by: cddbd v1.5.2PL0 Copyright (c) Steve Scherf et al.
# Submitted via: BonkEnc v1.0.8
# 
DISCID=a00a750c
DTITLE=Zeca Pagodinho - Deixa Clarear
DYEAR=1996
DGENRE=pagode
TTITLE0=Verdade
TTITLE1=Deixa Clarear
TTITLE2=Colete Curto/Nega do Patrão
TTITLE3=Vivo Isolado do Mundo
TTITLE4=Não Sou Mais Disso
TTITLE5=Conflito
TTITLE6=Dona Encrenca
TTITLE7=Velho Ditado
TTITLE8=Jiló Com Pimenta
TTITLE9=Vou Procurar Esquecer
TTITLE10=Olhos
TTITLE11=Boi
EXTD=YEAR: 1996
EXTT0=
EXTT1=
EXTT2=
EXTT3=
EXTT4=
EXTT5=
EXTT6=
EXTT7=
EXTT8=
EXTT9=
EXTT10=
EXTT11=
PLAYORDER=
